<svg width="147" height="49" viewBox="0 0 147 49" fill="none" xmlns="http://www.w3.org/2000/svg">
<path d="M25.3674 2.21121C19.7395 -0.522931 12.4783 1.02543 8.07953 5.41573C0.97032 12.5434 -0.970319 23.3885 1.84037 33.2014C3.78425 39.9142 10.0234 47.4045 17.4884 47.9729C23.2165 48.489 28.0746 46.0652 31.8103 41.6716C38.3535 33.9756 39.3756 21.0137 34.8765 12.0241C32.9326 8.14987 29.4557 3.91637 25.3642 2.21121M35.5946 12.0273C40.0451 21.5821 38.9195 34.9098 31.8103 42.913C27.3598 47.9239 20.9169 50.2987 14.4222 48.2832C4.70605 44.7716 0.155251 34.3904 0 24.5253C0.155251 14.6079 4.70605 4.27896 14.4222 0.767373C23.3718 -2.22809 32.1176 3.96863 35.5946 12.0273Z" fill="black"/>
<path d="M14.9268 9.60024C14.9785 14.3107 15.0982 22.5817 15.0982 22.5817C15.0982 22.5817 22.7831 15.7382 23.7567 11.1421L27.0299 8.86852C27.3371 10.3646 25.086 11.1943 24.575 12.5859C22.1718 16.5646 17.6566 19.7397 15.8162 24.0255C18.0803 29.5003 23.9766 33.7763 28.4271 37.1866L29.1419 38.6337C27.5571 37.6015 24.0801 38.5292 24.3356 35.5337L15.5089 26.5049H15.2017C13.2352 33.0054 13.0088 35.8538 10.4697 37.4871C9.66115 37.9118 8.57763 38.2613 7.50381 38.0033C6.37823 37.5394 6.18094 36.1642 6.37823 35.2169C6.57553 34.2695 7.4003 33.6652 7.4003 33.6652C7.4003 33.6652 8.42561 35.3606 10.059 35.1123C11.6924 34.8641 12.5883 33.0511 13.5651 29.4023C14.6777 25.5118 14.3769 14.6961 13.7979 12.1808C13.4648 10.7272 12.8761 10.3222 12.8761 10.3222L15.0238 4.74282C16.0976 6.08539 14.82 7.89181 14.9203 9.59697" fill="black"/>
<path d="M29.1128 15.2612C29.4201 17.2767 26.8099 16.398 25.7361 17.2245C24.7658 17.8451 23.7437 18.7728 23.3847 19.9096C23.0774 22.4935 27.3242 20.8406 26.4541 23.3199C25.4838 24.9728 22.8737 26.1619 23.4882 28.3831C23.8472 29.0528 24.6655 29.2586 25.3286 29.0005C26.7614 28.5367 27.7317 27.0406 29.1128 26.5212C29.3166 27.5044 28.191 26.936 27.887 27.658C26.7614 28.7947 25.5841 29.827 23.9992 29.827C23.1809 29.827 22.2591 29.4677 22.0586 28.5889C21.9066 26.1096 24.5653 24.8716 25.7393 23.0129C24.8693 22.1864 23.3879 22.598 22.6731 21.4612C22.5179 19.3445 24.3615 17.6916 25.9463 16.7083C26.9684 16.2968 28.2978 16.3458 28.8088 15.2612H29.1161" fill="black"/>
<path d="M82.157 36.1021H81.7236V31.2904H84.2593C85.5498 31.2904 85.8539 31.9503 85.8539 32.6559C85.8539 33.3614 85.5498 34.0311 84.2593 34.0311H82.157V36.1021ZM84.2593 33.5934C84.9191 33.5934 85.4205 33.4268 85.4205 32.6559C85.4205 31.8849 84.9191 31.7249 84.2593 31.7249H82.157V33.5934H84.2593Z" fill="black"/>
<path d="M50.172 21.5331H42.9108V12.9126H49.9197V13.9252H43.9102V16.5548H47.0734V17.5675H43.9102V20.5205H50.1688V21.5331H50.172Z" fill="black"/>
<path d="M61.0849 21.5331H59.9366L57.9701 17.9464H54.5902V21.5331H53.5875V12.9126H57.844C59.1313 12.9126 61.2919 13.1543 61.2919 15.3854C61.2919 17.2473 60.1081 17.8451 59.1054 17.9497L61.0849 21.5364V21.5331ZM58.2515 16.9337C59.3771 16.9337 60.2892 16.7965 60.2892 15.3919C60.2892 14.3237 59.3577 13.9219 58.4359 13.9219H54.5902V16.9337H58.2548H58.2515Z" fill="black"/>
<path d="M65.9235 21.5331H64.9209V12.9126H65.9235V21.5331Z" fill="black"/>
<path d="M78.473 20.0043C77.9846 20.4649 76.8784 21.716 74.375 21.716C72.0656 21.716 69.6398 20.2003 69.6398 17.2245C69.6398 14.2486 72.0624 12.7296 74.2262 12.7296C76.5809 12.7296 77.9005 14.0069 78.3436 14.4413L77.6256 15.1436C77.1598 14.7419 75.976 13.7423 74.2456 13.7423C72.0592 13.7423 70.6393 15.4311 70.6393 17.2016C70.6393 18.9721 72.0624 20.7067 74.417 20.7067C76.4094 20.7067 77.3862 19.6287 77.7873 19.2367L78.4697 20.0076L78.473 20.0043Z" fill="black"/>
<path d="M95.0202 21.5331H93.8234L90.796 16.6822L88.464 18.9231V21.5331H87.4614V12.9126H88.464V17.6361L93.2218 12.9126H94.5544L91.5497 15.9342L95.0202 21.5331Z" fill="black"/>
<path d="M104.41 21.5331L103.022 18.5801H98.9241L97.5818 21.5331H96.4659L100.528 12.9126H101.531L105.525 21.5331H104.41ZM101.03 14.1408L99.4254 17.5675H102.579L101.03 14.1408Z" fill="black"/>
<path d="M111.577 21.5331H110.574V17.5446L106.968 12.9126H108.265L111.098 16.545L113.932 12.9126H115.229L111.577 17.5446V21.5331Z" fill="black"/>
<path d="M122.082 16.4732C123.674 16.4732 125.291 17.0579 125.291 18.9656C125.291 20.8733 123.311 21.7128 121.219 21.7128C118.625 21.7128 117.451 20.4029 116.953 19.8639L117.671 19.1518C118.195 19.6221 119.049 20.7034 121.254 20.7034C123.179 20.7034 124.291 19.9684 124.291 18.9688C124.291 17.8909 123.211 17.4858 122.357 17.4858H120.559C118.909 17.4858 117.577 16.9337 117.577 15.3266C117.577 14.131 118.647 12.7296 121.264 12.7296C123.221 12.7296 124.405 13.6704 124.838 13.9938L124.214 14.7876C123.599 14.3727 122.781 13.7423 121.245 13.7423C119.32 13.7423 118.583 14.6504 118.583 15.3298C118.583 16.4797 120.029 16.4797 121.054 16.4797H122.089L122.082 16.4732Z" fill="black"/>
<path d="M135.861 21.5331H128.6V12.9126H135.609V13.9252H129.599V16.5548H132.762V17.5675H129.599V20.5205H135.858V21.5331H135.861Z" fill="black"/>
<path d="M146.774 21.5331H145.626L143.656 17.9464H140.276V21.5331H139.276V12.9126H143.533C144.817 12.9126 146.981 13.1543 146.981 15.3854C146.981 17.2473 145.797 17.8451 144.794 17.9497L146.774 21.5364V21.5331ZM143.94 16.9337C145.066 16.9337 145.975 16.7965 145.975 15.3919C145.975 14.3237 145.043 13.9219 144.122 13.9219H140.276V16.9337H143.94Z" fill="black"/>
<path d="M46.3683 28.1316H46.0546L45.5112 27.021H43.9134L43.3701 28.1316H43.0563L44.57 24.9957H44.8514L46.3651 28.1316H46.3683ZM44.7123 25.3158L44.0525 26.7368H45.3657L44.7123 25.3158Z" fill="black"/>
<path d="M53.0312 28.1316H52.7045L51.925 26.7923H50.5698V28.1316H50.2884V24.9957H52.1903C52.8889 24.9957 53.0959 25.5575 53.0959 25.8777C53.0959 26.6127 52.5169 26.7727 52.2485 26.7956L53.0312 28.1349V28.1316ZM51.9444 26.5114C52.339 26.5114 52.8177 26.4689 52.8177 25.8777C52.8177 25.3713 52.394 25.2799 52.1935 25.2799H50.5731V26.5114H51.9444Z" fill="black"/>
<path d="M58.4779 28.1316H58.1965V25.2799H57.0192V24.9957H59.652V25.2799H58.4747V28.1316H58.4779Z" fill="black"/>
<path d="M63.86 28.1316H63.5786V24.9957H63.86V28.1316Z" fill="black"/>
<path d="M69.7239 26.3611C70.4096 26.3742 70.7913 26.7793 70.7913 27.2431C70.7913 27.707 70.4193 28.2002 69.3164 28.2002C68.3817 28.2002 68 27.769 67.7801 27.56L67.9741 27.3542C68.1844 27.5208 68.4755 27.916 69.3164 27.916C69.9568 27.916 70.5099 27.707 70.5099 27.2431C70.5099 26.9589 70.2479 26.6551 69.7078 26.6453L68.9962 26.6323C68.5498 26.6323 68.0065 26.4689 68.0065 25.8548C68.0065 25.4465 68.3752 24.9304 69.3358 24.9304C70.0797 24.9304 70.4549 25.2668 70.6166 25.3779L70.442 25.5902C70.1606 25.4138 69.8792 25.2146 69.3584 25.2146C68.5854 25.2146 68.2911 25.6 68.2911 25.8581C68.2911 26.2403 68.6404 26.3448 68.9994 26.3481L69.7272 26.3611H69.7239Z" fill="black"/>
<path d="M77.7129 28.1316L77.1695 27.021H75.5717L75.0283 28.1316H74.7146L76.2315 24.9957H76.5129L78.0299 28.1316H77.7129ZM76.3706 25.3158L75.7108 26.7368H77.024L76.3706 25.3158Z" fill="black"/>
<path d="M84.6927 28.1316H84.4113L82.2411 25.4236H82.2314V28.1316H81.95V24.9957H82.2314L84.4016 27.7168H84.4113V24.9957H84.6927V28.1316Z" fill="black"/>
<path d="M96.0034 24.9957C96.5015 24.9957 96.8735 25.3419 96.8735 25.8254C96.8735 26.2207 96.6406 26.4232 96.563 26.4983C96.7182 26.5963 97.0158 26.8086 97.0158 27.2725C97.0158 27.7984 96.618 28.1316 96.0067 28.1316H94.1889V24.9957H96.0067H96.0034ZM96.0034 26.3056C96.3366 26.3056 96.5921 26.1031 96.5921 25.7503C96.5921 25.4399 96.4013 25.208 96.0034 25.208H94.4671V26.3089H96.0034V26.3056ZM96.0034 27.8507C96.4207 27.8507 96.7312 27.7037 96.7312 27.2725C96.7312 26.8707 96.4401 26.6649 96.0034 26.6649H94.4671V27.8474H96.0034V27.8507Z" fill="black"/>
<path d="M102.032 28.2002C101.075 28.2002 100.367 27.511 100.367 26.5637C100.367 25.6163 101.075 24.9304 102.032 24.9304C102.99 24.9304 103.698 25.6196 103.698 26.5637C103.698 27.5077 102.99 28.2002 102.032 28.2002ZM103.417 26.5637C103.417 25.845 102.867 25.2146 102.032 25.2146C101.198 25.2146 100.648 25.845 100.648 26.5637C100.648 27.2823 101.198 27.916 102.032 27.916C102.867 27.916 103.417 27.2823 103.417 26.5637Z" fill="black"/>
<path d="M109.795 27.0014C109.795 27.7952 109.277 28.2002 108.424 28.2002C107.57 28.2002 107.052 27.7952 107.052 27.0014V24.999H107.334V27.0014C107.334 27.5665 107.663 27.9193 108.424 27.9193C109.184 27.9193 109.51 27.5665 109.51 27.0014V24.999H109.792V27.0014H109.795Z" fill="black"/>
<path d="M113.149 28.1316V24.9957H113.43V27.8474H115.449V28.1316H113.149Z" fill="black"/>
<path d="M122.111 28.1316H121.798L121.254 27.021H119.657L119.113 28.1316H118.799L120.313 24.9957H120.595L122.108 28.1316H122.111ZM120.455 25.3158L119.799 26.7368H121.112L120.459 25.3158H120.455Z" fill="black"/>
<path d="M128.208 28.1316H127.927L125.757 25.4236H125.747V28.1316H125.466V24.9957H125.747L127.917 27.7168H127.927V24.9957H128.208V28.1316Z" fill="black"/>
<path d="M134.664 27.2888C134.664 27.6972 134.208 28.2002 133.267 28.2002C132.271 28.2002 131.562 27.4946 131.562 26.5604C131.562 25.5608 132.348 24.9304 133.296 24.9304C133.988 24.9304 134.386 25.2668 134.587 25.4955L134.405 25.7013C134.247 25.5543 133.962 25.2146 133.293 25.2146C132.361 25.2146 131.844 25.8646 131.844 26.5604C131.844 27.2562 132.365 27.916 133.267 27.916C134.017 27.916 134.383 27.5436 134.383 27.2921V26.7531H133.267V26.4689H134.664V27.2888Z" fill="black"/>
<path d="M140.664 28.1316H138.018V24.9957H140.564V25.2799H138.3V26.3709H139.535V26.6551H138.3V27.8474H140.664V28.1316Z" fill="black"/>
<path d="M146.758 28.1316H146.431L145.651 26.7923H144.296V28.1316H144.015V24.9957H145.917C146.615 24.9957 146.822 25.5575 146.822 25.8777C146.822 26.6127 146.243 26.7727 145.972 26.7956L146.754 28.1349L146.758 28.1316ZM145.668 26.5114C146.062 26.5114 146.541 26.4689 146.541 25.8777C146.541 25.3713 146.117 25.2799 145.917 25.2799H144.296V26.5114H145.668Z" fill="black"/>
<path d="M92.2289 36.1021L91.3976 34.3969H88.946L88.1147 36.1021H87.6328L89.9583 31.2904H90.3917L92.7173 36.1021H92.2289ZM90.1718 31.7804L89.1627 33.9592H91.1745L90.1718 31.7804Z" fill="black"/>
<path d="M98.8368 36.1021H98.3354L97.1387 34.0507H95.0622V36.1021H94.6288V31.2904H97.5462C98.62 31.2904 98.937 32.1495 98.937 32.6428C98.937 33.773 98.0476 34.0148 97.6336 34.0474L98.8368 36.0988V36.1021ZM97.1646 33.613C97.7694 33.613 98.5068 33.5476 98.5068 32.6461C98.5068 31.8686 97.8567 31.7281 97.5462 31.7281H95.0622V33.6162H97.1646V33.613Z" fill="black"/>
<path d="M102.019 36.1021H101.586V31.2904H102.019V36.1021Z" fill="black"/>
<path d="M107.372 33.3843C108.427 33.4039 109.009 34.0246 109.009 34.7367C109.009 35.4488 108.436 36.2066 106.748 36.2066C105.312 36.2066 104.727 35.5468 104.39 35.2234L104.688 34.9098C105.011 35.1679 105.458 35.7689 106.745 35.7689C107.728 35.7689 108.572 35.4488 108.572 34.7367C108.572 34.2989 108.171 33.8384 107.34 33.8188L106.247 33.7992C105.561 33.7926 104.73 33.5476 104.73 32.6069C104.73 31.9797 105.296 31.1892 106.768 31.1892C107.912 31.1892 108.482 31.7085 108.731 31.8751L108.462 32.2018C108.032 31.9307 107.599 31.6236 106.8 31.6236C105.613 31.6236 105.16 32.2116 105.16 32.6101C105.16 33.1948 105.694 33.3549 106.247 33.3614L107.366 33.381L107.372 33.3843Z" fill="black"/>
<path d="M77.5965 33.5542H42.8461V33.956H77.5965V33.5542Z" fill="black"/>
<path d="M146.948 33.5542H113.097V33.956H146.948V33.5542Z" fill="black"/>
</svg>
